<?xml version="1.0" encoding="iso-8859-1"?>
<!-- Uploaded to: SVG Repo, www.svgrepo.com, Generator: SVG Repo Mixer Tools -->
<svg version="1.1" id="Layer_1" xmlns="http://www.w3.org/2000/svg" xmlns:xlink="http://www.w3.org/1999/xlink" 
	 viewBox="0 0 512 512" xml:space="preserve">
<path style="fill:#F3A933;" d="M256,8.17v198.809h41.927l5.337-21.47c28.502-16.388,47.694-47.142,47.694-82.38
	C350.96,50.685,308.445,8.17,256,8.17z"/>
<path style="fill:#FFBE35;" d="M256,8.17c-52.464,0.02-94.96,42.527-94.96,94.959c0,35.236,19.192,65.991,47.694,82.38l5.338,21.47
	h74.236l4.112-21.47c21.963-16.388,36.752-47.142,36.752-82.38C329.171,50.685,296.412,8.17,256,8.17z"/>
<rect x="214.07" y="206.979" style="fill:#2F5E88;" width="83.856" height="82.356"/>
<polygon style="fill:#FF754F;" points="403.14,377.268 403.14,503.83 256,503.83 234.213,355.48 "/>
<polygon style="fill:#FF9269;" points="256,355.48 256,503.83 108.86,503.83 108.86,377.268 "/>
<polygon style="fill:#FF4719;" points="403.14,344.587 403.14,377.268 256,377.268 225.901,344.587 256,272.34 "/>
<polygon style="fill:#FF754F;" points="256,272.34 256,377.268 108.86,377.268 108.86,344.587 "/>
<polygon style="fill:#FF9269;" points="403.14,272.34 256,272.34 286.099,344.587 433.239,344.587 "/>
<polygon style="fill:#FFB082;" points="108.86,272.34 78.761,344.587 225.901,344.587 256,272.34 "/>
<path d="M403.137,369.092c-4.513,0-8.17,3.658-8.17,8.17V495.66H288.681c-4.513,0-8.17,3.657-8.17,8.17s3.657,8.17,8.17,8.17
	h114.456c4.513,0,8.17-3.657,8.17-8.17V377.262C411.307,372.75,407.65,369.092,403.137,369.092z"/>
<path d="M440.78,341.44l-30.101-72.241c-1.268-3.045-4.244-5.027-7.542-5.027H108.863c-3.298,0-6.274,1.983-7.542,5.027
	L71.22,341.44c-1.051,2.521-0.772,5.401,0.744,7.675c1.515,2.273,4.065,3.638,6.798,3.638h21.931V503.83
	c0,4.513,3.657,8.17,8.17,8.17H256c4.513,0,8.17-3.657,8.17-8.17V313.191l14.389,34.534c1.268,3.045,4.243,5.027,7.542,5.027
	h147.137c2.732,0,5.283-1.365,6.798-3.638C441.552,346.841,441.831,343.96,440.78,341.44z M114.31,280.511h129.435l-23.293,55.901
	H91.017L114.31,280.511z M117.033,495.66V352.752H225.9c3.297,0,6.274-1.983,7.542-5.027l14.388-34.533V495.66H117.033z
	 M291.548,336.411l-23.293-55.901H397.69l23.293,55.901H291.548z"/>
<path d="M201.626,190.774l4.518,18.176c0.905,3.642,4.176,6.198,7.928,6.198h83.856c3.753,0,7.023-2.558,7.928-6.198l4.518-18.176
	c30.162-18.754,48.755-52.014,48.755-87.645C359.13,46.264,312.866,0,256,0S152.87,46.264,152.87,103.13
	C152.87,138.761,171.463,172.02,201.626,190.774z M256,16.34c47.856,0,86.789,38.934,86.789,86.789
	c0,30.981-16.705,59.834-43.596,75.296c-1.928,1.109-3.32,2.954-3.856,5.111l-3.796,15.272h-71.079l-3.796-15.272
	c-0.536-2.157-1.928-4.003-3.856-5.111c-26.892-15.461-43.597-44.314-43.597-75.296C169.211,55.274,208.144,16.34,256,16.34z"/>
<path d="M297.927,231.489h-83.856c-4.513,0-8.17,3.657-8.17,8.17s3.657,8.17,8.17,8.17h83.856c4.513,0,8.17-3.657,8.17-8.17
	S302.441,231.489,297.927,231.489z"/>
<path d="M231.731,176.27c0.924,3.717,4.257,6.201,7.922,6.201c0.653,0,1.316-0.078,1.978-0.244c4.379-1.088,7.046-5.52,5.958-9.9
	l-7.227-29.075h31.278l-7.227,29.075c-1.088,4.38,1.578,8.812,5.958,9.9c0.661,0.164,1.326,0.244,1.978,0.244
	c3.665,0,6.999-2.484,7.922-6.201l9.748-39.217c0.011-0.042,0.015-0.086,0.025-0.129c0.036-0.157,0.066-0.316,0.094-0.476
	c0.021-0.124,0.041-0.247,0.057-0.37c0.015-0.13,0.026-0.26,0.036-0.391c0.012-0.156,0.021-0.312,0.024-0.467
	c0.001-0.047,0.007-0.092,0.007-0.138c0-0.064-0.008-0.126-0.01-0.191c-0.004-0.167-0.011-0.331-0.025-0.497
	c-0.01-0.113-0.023-0.225-0.036-0.338c-0.019-0.149-0.04-0.297-0.068-0.444c-0.023-0.127-0.05-0.254-0.08-0.38
	c-0.029-0.126-0.061-0.251-0.097-0.375c-0.039-0.141-0.083-0.278-0.13-0.415c-0.037-0.107-0.075-0.214-0.117-0.319
	c-0.057-0.144-0.115-0.285-0.18-0.426c-0.045-0.098-0.092-0.194-0.139-0.29c-0.07-0.137-0.142-0.272-0.219-0.405
	c-0.056-0.097-0.114-0.193-0.174-0.288c-0.077-0.122-0.158-0.243-0.242-0.361c-0.071-0.1-0.146-0.199-0.222-0.296
	c-0.081-0.103-0.163-0.206-0.249-0.306c-0.089-0.103-0.182-0.205-0.277-0.304c-0.083-0.087-0.166-0.171-0.252-0.254
	c-0.106-0.101-0.215-0.199-0.326-0.295c-0.087-0.074-0.174-0.148-0.264-0.219c-0.115-0.092-0.233-0.179-0.354-0.265
	c-0.098-0.07-0.197-0.136-0.297-0.202c-0.117-0.075-0.234-0.146-0.355-0.216c-0.118-0.068-0.236-0.132-0.357-0.193
	c-0.109-0.056-0.22-0.109-0.332-0.16c-0.142-0.064-0.286-0.124-0.432-0.181c-0.1-0.038-0.199-0.076-0.302-0.11
	c-0.161-0.056-0.326-0.103-0.492-0.149c-0.059-0.016-0.114-0.038-0.173-0.052c-0.044-0.011-0.087-0.015-0.131-0.026
	c-0.154-0.035-0.308-0.064-0.465-0.092c-0.131-0.023-0.261-0.044-0.392-0.06c-0.118-0.014-0.236-0.024-0.356-0.034
	c-0.172-0.013-0.342-0.023-0.512-0.026c-0.039-0.001-0.077-0.005-0.115-0.005h-52.176c-2.514,0-4.888,1.158-6.436,3.138
	c-1.549,1.979-2.099,4.562-1.492,7.004L231.731,176.27z"/>
</svg>