<?xml version="1.0" encoding="iso-8859-1"?>
<!-- Uploaded to: SVG Repo, www.svgrepo.com, Generator: SVG Repo Mixer Tools -->
<svg height="800px" width="800px" version="1.1" id="Layer_1" xmlns="http://www.w3.org/2000/svg" xmlns:xlink="http://www.w3.org/1999/xlink" 
	 viewBox="0 0 507.947 507.947" xml:space="preserve">
<path style="fill:#FFFFFF;" d="M327.274,303.9c25.8-21.7,40.5-53.4,40.5-87c0-48.7-38.7-113.8-113.7-113.8
	c-65.2,0-114.5,57.2-113.8,112.7c-0.3,34.2,14.5,66.3,40.7,88.3c33.3,27.9,52.4,68,52.4,110v17.2l41.3-9.5v-7.7
	C274.574,372.3,293.774,332.1,327.274,303.9z"/>
<path style="fill:#56ACE0;" d="M253.974,131.4c-54.7,1.2-85.2,40.5-85.5,84.8c-0.2,25.7,10.9,49.9,30.6,66.4
	c26.3,22,45.2,50.5,54.9,81.9c9.8-31.3,28.7-59.8,55.1-82c19.4-16.3,30.5-40.1,30.5-65.4C339.574,169.7,301.174,131.4,253.974,131.4
	z"/>
<g>
	<path style="fill:#194F82;" d="M78.174,202.8h-27c-7.8,0-14.1,6.3-14.1,14.1l0,0c0,7.8,6.3,14.1,14.1,14.1h27
		c7.8,0,14.1-6.3,14.1-14.1l0,0C92.274,209.1,85.974,202.8,78.174,202.8z"/>
	<path style="fill:#194F82;" d="M285.474,464.1l-69.5,16c-7.6,1.8-12.3,9.3-10.6,16.9c1.8,7.6,9.3,12.3,16.9,10.6l69.5-16
		c7.6-1.8,12.3-9.3,10.6-16.9S293.074,462.3,285.474,464.1z"/>
	<path style="fill:#194F82;" d="M253.974,178.1c10.4,0,18.9,8.5,18.9,18.9c0,6.8,5.5,12.4,12.4,12.4s12.4-5.5,12.4-12.4
		c0-19.8-13.2-36.5-31.3-41.9v-3.5c0-6.8-5.5-12.4-12.4-12.4c-6.9,0-12.4,5.5-12.4,12.4v3.5c-18.1,5.4-31.3,22.1-31.3,41.9
		c0,24.1,19.6,43.7,43.7,43.7c10.4,0,18.9,8.5,18.9,18.9c0,10.4-8.5,18.9-18.9,18.9c-10.4,0-18.9-8.5-18.9-18.9
		c0-6.8-5.5-12.4-12.4-12.4c-6.8,0-12.4,5.5-12.4,12.4c0,19.8,13.2,36.5,31.3,41.9v3.5c0,6.8,5.5,12.4,12.4,12.4s12.4-5.5,12.4-12.4
		v-3.5c18.1-5.4,31.3-22.1,31.3-41.9c0-24.1-19.6-43.7-43.7-43.7c-10.4,0-18.9-8.5-18.9-18.9
		C235.074,186.6,243.574,178.1,253.974,178.1z"/>
	<path style="fill:#194F82;" d="M253.974,55.2L253.974,55.2c7.8,0,14.1-6.3,14.1-14.1v-27c0-7.8-6.3-14.1-14.1-14.1l0,0
		c-7.8,0-14.1,6.3-14.1,14.1v27C239.874,48.9,246.174,55.2,253.974,55.2z"/>
	<path style="fill:#194F82;" d="M119.674,102.6c5.5,5.5,14.4,5.5,20,0c5.5-5.5,5.5-14.4,0-20l-19.1-19.1c-5.5-5.5-14.4-5.5-20,0
		c-5.5,5.5-5.5,14.4,0,20L119.674,102.6z"/>
	<path style="fill:#194F82;" d="M119.674,331.2l-19.1,19.1c-5.5,5.5-5.5,14.4,0,20c5.5,5.5,14.4,5.5,20,0l19.1-19.1
		c5.5-5.5,5.5-14.4,0-20S125.174,325.7,119.674,331.2z"/>
	<path style="fill:#194F82;" d="M388.274,331.2c-5.5-5.5-14.4-5.5-20,0s-5.5,14.4,0,20l19.1,19.1c5.5,5.5,14.4,5.5,20,0
		c5.5-5.5,5.5-14.4,0-20L388.274,331.2z"/>
	<path style="fill:#194F82;" d="M456.774,202.8h-27c-7.8,0-14.1,6.3-14.1,14.1l0,0c0,7.8,6.3,14.1,14.1,14.1h27
		c7.8,0,14.1-6.3,14.1-14.1l0,0C470.874,209.1,464.574,202.8,456.774,202.8z"/>
	<path style="fill:#194F82;" d="M388.274,102.6l19.1-19.1c5.5-5.5,5.5-14.4,0-20c-5.5-5.5-14.4-5.5-20,0l-19.1,19.1
		c-5.5,5.5-5.5,14.4,0,20C373.774,108.1,382.774,108.1,388.274,102.6z"/>
	<path style="fill:#194F82;" d="M255.074,74.9c-74.8-0.6-141.5,58.8-143.1,140.7c-0.4,42.6,18.1,82.8,50.8,110.1
		c26.9,22.5,42.3,54.7,42.3,88.4V449c0,9.1,8.4,15.8,17.3,13.8l69.5-16c6.4-1.5,10.9-7.2,10.9-13.7v-18.9
		c0-33.5,15.5-65.8,42.6-88.6c32.1-27.1,50.6-66.6,50.6-108.6C395.474,132.5,324.474,73.3,255.074,74.9z M274.574,421.8l-41.3,9.5
		v-17.2c0-42-19.1-82.1-52.4-110c-26.2-21.9-41-54.1-40.7-88.3c-0.7-55.5,48.7-112.7,113.8-112.7c75.1,0,113.7,65.1,113.7,113.8
		c0,33.6-14.8,65.4-40.5,87c-33.5,28.2-52.7,68.3-52.7,110.2v7.7H274.574z"/>
</g>
</svg>