<?xml version="1.0" encoding="iso-8859-1"?>
<!-- Uploaded to: SVG Repo, www.svgrepo.com, Generator: SVG Repo Mixer Tools -->
<svg height="800px" width="800px" version="1.1" id="Layer_1" xmlns="http://www.w3.org/2000/svg" xmlns:xlink="http://www.w3.org/1999/xlink" 
	 viewBox="0 0 484 484" xml:space="preserve">
<path style="fill:#D9CDC1;" d="M476,460.418L476,460.418c0-124-100-224-224-224h-24c-124,0-224,100-224,224l0,0"/>
<g>
	<path style="fill:#FFF8EF;" d="M250.4,236.418h-20.8c-107.2,0-193.6,100-193.6,224l0,0h408l0,0
		C444,336.418,357.6,236.418,250.4,236.418z"/>
	<path style="fill:#FFF8EF;" d="M278.4,287.618c-4.8,0-8.8,4-8.8,8.8s4,9.6,8.8,9.6h14.4v10.4h-96v-11.2h52.8c4.8,0,8.8-4,8.8-9.6
		c0-4.8-4-8.8-8.8-8.8H188v-9.6h113.6v9.6h-23.2V287.618z"/>
</g>
<path style="fill:#EE5656;" d="M214.4,337.218H276c-2.4,4.8-7.2,8-13.6,8h-35.2C221.6,345.218,216.8,342.018,214.4,337.218z"/>
<path style="fill:#FFC600;" d="M223.2,208.418c4.8,0,9.6-4,9.6-8.8v-64h26.4v122.4h-26.4v-25.6c0-4.8-4-8.8-9.6-8.8
	c-4.8,0-8.8,4-8.8,8.8v26.4h-20.8c-2.4-22.4-11.2-43.2-26.4-61.6c-16.8-20-25.6-45.6-24-71.2c3.2-52,46.4-93.6,99.2-94.4
	c33.6-0.8,64.8,15.2,84,43.2c9.6,12.8,15.2,28.8,16.8,44.8c3.2,28-4,54.4-21.6,76c-14.4,17.6-23.2,40-24.8,63.2h-19.2v-125.6h24
	c4.8,0,9.6-4,9.6-8.8s-4-8.8-9.6-8.8h-108c-4.8,0-8.8,4-8.8,8.8s4,8.8,8.8,8.8h20.8v65.6C213.6,204.418,218.4,208.418,223.2,208.418
	z"/>
<path style="fill:#FF9900;" d="M192.8,258.018c-2.4-22.4-11.2-43.2-26.4-61.6c-16.8-20-25.6-45.6-24-71.2
	c3.2-52,46.4-93.6,99.2-94.4c33.6-0.8,64.8,15.2,84,43.2c9.6,12.8,15.2,28.8,16.8,44.8c3.2,28-4,54.4-21.6,76
	c-14.4,17.6-23.2,40-24.8,63.2H192.8z"/>
<path style="fill:#FFC600;" d="M206.4,242.018c-4.8-20-14.4-39.2-28-56c-14.4-16.8-21.6-37.6-20-60c2.4-44,39.2-78.4,83.2-79.2h0.8
	c28,0,53.6,13.6,69.6,36.8c8,11.2,12.8,24,14.4,37.6c2.4,24-3.2,45.6-18.4,64c-13.6,16-22.4,36-26.4,57.6h-75.2V242.018z"/>
<g>
	<path style="fill:#42210B;" d="M383.2,254.818c60,36.8,100.8,103.2,100.8,179.2v28.8c0,4.8-4,8.8-9.6,8.8h-308
		c-4.8,0-9.6-4-9.6-8.8s4-9.6,9.6-9.6h299.2v-19.2c0-68.8-36.8-129.6-92-163.2c-4-2.4-5.6-7.2-4-11.2l0,0
		C372,254.018,378.4,251.618,383.2,254.818z"/>
	<path style="fill:#42210B;" d="M130.4,453.218c4.8,0,8.8,4,8.8,9.6c0,4.8-4,8.8-8.8,8.8h-16c-4.8,0-8.8-4-8.8-8.8s4-9.6,8.8-9.6
		H130.4z"/>
	<path style="fill:#42210B;" d="M262.4,345.218c5.6,0,10.4-3.2,13.6-8h-61.6c2.4,4.8,7.2,8,13.6,8H262.4z M262.4,363.618h-35.2
		c-16.8,0-30.4-12.8-32.8-28.8c-8.8,0-16-7.2-16-16v-14.4c-5.6-2.4-8.8-8-8.8-13.6v-17.6c0-4.8,2.4-8.8,5.6-11.2
		c-0.8-4.8-1.6-10.4-2.4-15.2c-88,17.6-153.6,94.4-153.6,187.2v19.2h59.2c4.8,0,8.8,4,8.8,9.6c0,4.8-4,8.8-8.8,8.8H9.6
		c-4.8,0-9.6-4-9.6-8.8v-28.8c0-100,71.2-184.8,165.6-204.8c-3.2-7.2-8-14.4-13.6-20.8c-20-23.2-29.6-53.6-28-84
		c4-61.6,55.2-110.4,116.8-112c32-0.8,62.4,12,85.6,34.4c32,32,44,79.2,28.8,125.6c-4,12.8-12,24-20,35.2
		c-12,15.2-19.2,34.4-20.8,54.4c3.2,3.2,5.6,7.2,5.6,11.2v17.6c0,6.4-4,11.2-8.8,13.6v14.4c0,8.8-7.2,16-16,16
		C292.8,350.818,279.2,363.618,262.4,363.618z M292.8,316.418v-11.2h-14.4c-4.8,0-8.8-4-8.8-9.6c0-4.8,4-8.8,8.8-8.8h23.2v-9.6H188
		v9.6h62.4c4.8,0,8.8,4,8.8,8.8s-4,9.6-8.8,9.6h-52.8v11.2H292.8z M232,258.018h26.4v-122.4H232v64c0,4.8-4,8.8-9.6,8.8
		c-4.8,0-8.8-4-8.8-8.8v-65.6h-20.8c-4.8,0-8.8-4-8.8-8.8s4-8.8,8.8-8.8h108c4.8,0,9.6,4,9.6,8.8s-4,8.8-9.6,8.8h-24v124.8H296
		c2.4-23.2,10.4-45.6,24.8-63.2c17.6-21.6,24.8-48,21.6-76c-1.6-16-8-31.2-16.8-44.8c-20-28-51.2-44-84-43.2
		c-52,0.8-96,42.4-99.2,94.4c-1.6,26.4,7.2,51.2,24,71.2c15.2,17.6,24,39.2,26.4,61.6h20.8v-26.4c0-4.8,4-8.8,8.8-8.8s9.6,4,9.6,8.8
		L232,258.018L232,258.018z"/>
</g>
<g>
	<polygon style="fill:#D9CDC1;" points="188,278.018 188,287.618 204,287.618 204,284.418 296.8,278.018 	"/>
	<polygon style="fill:#D9CDC1;" points="196.8,305.218 196.8,316.418 252,316.418 204,308.418 204,305.218 	"/>
</g>
</svg>