<?xml version="1.0" encoding="iso-8859-1"?>
<!-- Uploaded to: SVG Repo, www.svgrepo.com, Generator: SVG Repo Mixer Tools -->
<svg version="1.1" id="Layer_1" xmlns="http://www.w3.org/2000/svg" xmlns:xlink="http://www.w3.org/1999/xlink" 
	 viewBox="0 0 392.533 392.533" xml:space="preserve">
<g>
	<path style="fill:#FFFFFF;" d="M294.917,160.259c0-54.432-44.283-97.293-98.651-98.65c-51.523-1.293-93.22,42.214-98.069,87.531
		c-3.038,28.057,5.43,55.014,23.725,76.024c25.6,29.22,40.404,64.905,42.279,101.301h64.194
		c2.263-37.947,16.614-73.115,40.986-99.943C285.931,208.356,294.917,184.889,294.917,160.259z"/>
	<rect x="164.461" y="348.315" style="fill:#FFFFFF;" width="63.677" height="22.497"/>
</g>
<path style="fill:#194F82;" d="M196.267,39.758c-42.667,0-109.446,27.927-119.79,107.055c-4.461,34.069,6.594,67.103,28.962,92.703
	c23.984,27.345,37.107,61.026,37.107,94.901v47.192c0,6.012,4.848,10.925,10.925,10.925h85.463c6.012,0,10.925-4.849,10.925-10.925
	V333.77c0-36.461,12.671-67.297,35.62-92.574c20.17-22.174,31.289-50.941,31.289-81.002
	C316.703,93.867,262.723,39.758,196.267,39.758z M228.073,370.812h-63.677v-22.497h63.677V370.812z M164.202,326.529
	c-1.875-36.396-16.743-72.081-42.279-101.301c-18.36-21.01-26.828-47.968-23.725-76.024c4.913-45.382,46.545-88.954,98.069-87.531
	c54.368,1.422,98.651,44.283,98.651,98.651c0,24.566-9.115,48.162-25.6,66.327c-24.372,26.828-38.723,61.996-40.986,99.943h-64.129
	V326.529z"/>
<g>
	<path style="fill:#FFC10D;" d="M196.267,83.329C199.305,83.135,193.358,83.329,196.267,83.329L196.267,83.329z"/>
	<path style="fill:#FFC10D;" d="M196.267,83.329c-44.283,2.651-72.533,32.84-76.412,68.137c-2.392,21.85,4.202,42.99,18.489,59.345
		c23.984,27.345,39.564,59.992,45.382,93.867h25.277c5.818-34.974,21.01-67.168,44.283-92.832
		c12.8-14.158,19.911-32.517,19.911-51.717C273.131,117.851,238.675,83.329,196.267,83.329z"/>
</g>
<g>
	<path style="fill:#194F82;" d="M346.958,150.756h-6.853c-6.012,0-10.925,4.848-10.925,10.925c0,6.012,4.848,10.925,10.925,10.925
		h6.853c6.012,0,10.925-4.848,10.925-10.925C357.818,155.604,352.97,150.756,346.958,150.756z"/>
	<path style="fill:#194F82;" d="M52.493,150.756h-6.917c-6.012,0-10.925,4.848-10.925,10.925c0,6.012,4.848,10.925,10.925,10.925
		h6.853c6.012,0,10.925-4.848,10.925-10.925C63.354,155.604,58.505,150.756,52.493,150.756z"/>
	<path style="fill:#194F82;" d="M305.713,67.685l4.848-4.848c4.267-4.267,4.267-11.119,0-15.451c-4.267-4.267-11.119-4.267-15.451,0
		l-4.848,4.848c-4.267,4.267-4.267,11.119,0,15.451C294.465,71.952,301.447,71.952,305.713,67.685z"/>
	<path style="fill:#194F82;" d="M86.82,255.677l-4.848,4.848c-4.267,4.267-4.267,11.119,0,15.451c4.267,4.267,11.119,4.267,15.451,0
		l4.848-4.848c4.267-4.267,4.267-11.119,0-15.451C98.069,251.345,91.087,251.345,86.82,255.677z"/>
	<path style="fill:#194F82;" d="M305.713,255.677c-4.267-4.267-11.119-4.267-15.451,0c-4.267,4.267-4.267,11.119,0,15.451
		l4.848,4.848c4.267,4.267,11.119,4.267,15.451,0c4.267-4.267,4.267-11.119,0-15.451L305.713,255.677z"/>
	<path style="fill:#194F82;" d="M86.82,67.685c4.267,4.267,11.119,4.267,15.451,0c4.267-4.267,4.267-11.119,0-15.451l-4.848-4.848
		c-4.267-4.267-11.119-4.267-15.451,0c-4.267,4.267-4.267,11.119,0,15.451L86.82,67.685z"/>
	<path style="fill:#194F82;" d="M196.267,28.703c6.012,0,10.925-4.848,10.925-10.925v-6.853C207.192,4.913,202.343,0,196.267,0
		c-6.012,0-10.925,4.848-10.925,10.925v6.853C185.341,23.855,190.255,28.703,196.267,28.703z"/>
	<path style="fill:#194F82;" d="M193.099,131.168h30.513c5.301,0,9.632-4.331,9.632-9.632c0-5.301-4.331-9.632-9.632-9.632h-17.778
		v-9.438c0-5.301-4.331-9.632-9.632-9.632s-9.632,4.331-9.632,9.632v10.02c-15.58,3.103-27.41,16.937-27.41,33.487
		c0,18.747,15.321,34.069,34.133,34.069l6.012-0.065c8.145,0,14.675,6.594,14.675,14.675s-6.594,14.675-14.675,14.675h-30.513
		c-5.301,0-9.632,4.331-9.632,9.632s4.331,9.632,9.632,9.632h17.778v9.438c0,5.301,4.331,9.632,9.632,9.632
		c5.301,0,9.632-4.331,9.632-9.632v-10.02c15.58-3.103,27.41-16.937,27.41-33.487c0-18.747-15.321-34.069-34.133-34.069
		l-6.012,0.065c-8.145,0-14.675-6.594-14.675-14.675C178.424,137.826,184.954,131.168,193.099,131.168z"/>
</g>
</svg>