<?xml version="1.0" encoding="iso-8859-1"?>
<!-- Uploaded to: SVG Repo, www.svgrepo.com, Generator: SVG Repo Mixer Tools -->
<svg fill="#000000" version="1.1" id="Layer_1" xmlns="http://www.w3.org/2000/svg" xmlns:xlink="http://www.w3.org/1999/xlink" 
	 viewBox="0 0 512 512" xml:space="preserve">
<g>
	<g>
		<path d="M275.542,70.14c-38.417,0-69.671,31.254-69.671,69.669c0,17.338,6.316,33.745,17.842,46.552h36.62v-45.947h30.417v45.947
			h36.62c11.525-12.808,17.842-29.215,17.842-46.552C345.212,101.394,313.958,70.14,275.542,70.14z"/>
	</g>
</g>
<g>
	<g>
		<path d="M402.543,216.779H145.797c-8.444,17.927-13.003,37.44-13.369,57.607l-36.379,104.61h36.355v74.206h67.179V512h166.43
			V385.034c31.834-27.013,49.939-65.958,49.939-108.01C415.951,255.919,411.356,235.488,402.543,216.779z"/>
	</g>
</g>
<g>
	<g>
		<rect x="135.732" y="124.599" width="49.996" height="30.417"/>
	</g>
</g>
<g>
	<g>
		<rect x="179.15" y="33.629" transform="matrix(0.7071 -0.7071 0.7071 0.7071 15.4708 154.6035)" width="30.417" height="49.995"/>
	</g>
</g>
<g>
	<g>
		
			<rect x="331.726" y="43.413" transform="matrix(0.7071 -0.7071 0.7071 0.7071 63.0307 269.4115)" width="49.995" height="30.417"/>
	</g>
</g>
<g>
	<g>
		<rect x="365.361" y="124.599" width="49.996" height="30.417"/>
	</g>
</g>
<g>
	<g>
		<rect x="260.331" width="30.417" height="49.996"/>
	</g>
</g>
</svg>