<?xml version="1.0" encoding="iso-8859-1"?>
<!-- Uploaded to: SVG Repo, www.svgrepo.com, Generator: SVG Repo Mixer Tools -->
<svg height="800px" width="800px" version="1.1" id="Layer_1" xmlns="http://www.w3.org/2000/svg" xmlns:xlink="http://www.w3.org/1999/xlink" 
	 viewBox="0 0 512.001 512.001" xml:space="preserve">
<path style="fill:#FFF5C8;" d="M432.552,176.552c0-100.681-84.275-181.679-186.131-176.298
	C152.64,5.208,77.922,85.617,79.473,179.516c1.042,63.081,35.214,118.026,85.845,148.383c18.211,10.92,28.889,31.05,28.889,52.284
	v43.542h123.586v-43.549c0-21.843,11.725-41.744,30.349-53.155C398.756,296.007,432.552,240.267,432.552,176.552z"/>
<circle style="fill:#FFFAE1;" cx="256.001" cy="176.553" r="150.069"/>
<circle style="fill:#FFFFFF;" cx="256.001" cy="176.553" r="52.966"/>
<polygon style="fill:#AFB9D2;" points="300.138,450.207 211.861,450.207 194.206,423.725 317.793,423.725 "/>
<polygon style="fill:#959CB3;" points="194.206,423.725 211.861,450.207 256,450.207 247.172,423.725 "/>
<path style="fill:#C7CFE2;" d="M300.138,459.035h-88.276c-4.875,0-8.828-3.953-8.828-8.828l0,0c0-4.875,3.953-8.828,8.828-8.828
	h88.276c4.875,0,8.828,3.953,8.828,8.828l0,0C308.965,455.084,305.013,459.035,300.138,459.035z"/>
<path style="fill:#AFB9D2;" d="M300.138,476.69h-88.276c-4.875,0-8.828-3.953-8.828-8.828l0,0c0-4.875,3.953-8.828,8.828-8.828
	h88.276c4.875,0,8.828,3.953,8.828,8.828l0,0C308.965,472.739,305.013,476.69,300.138,476.69z"/>
<path style="fill:#C7CFE2;" d="M300.138,494.346h-88.276c-4.875,0-8.828-3.953-8.828-8.828l0,0c0-4.875,3.953-8.828,8.828-8.828
	h88.276c4.875,0,8.828,3.953,8.828,8.828l0,0C308.965,490.394,305.013,494.346,300.138,494.346z"/>
<path style="fill:#707487;" d="M211.861,494.346l12.484,12.484c3.311,3.311,7.801,5.171,12.484,5.171h38.339
	c4.682,0,9.173-1.86,12.484-5.171l12.484-12.484H211.861z"/>
<g>
	<path style="fill:#AFB9D2;" d="M247.172,450.207c0-4.875,3.953-8.828,8.828-8.828h-44.138c-4.875,0-8.828,3.953-8.828,8.828
		c0,4.875,3.953,8.828,8.828,8.828H256C251.124,459.035,247.172,455.083,247.172,450.207z"/>
	<path style="fill:#AFB9D2;" d="M247.172,485.518c0-4.875,3.953-8.828,8.828-8.828h-44.138c-4.875,0-8.828,3.953-8.828,8.828
		c0,4.875,3.953,8.828,8.828,8.828H256C251.124,494.346,247.172,490.393,247.172,485.518z"/>
</g>
<g>
	<path style="fill:#959CB3;" d="M247.172,467.863c0-4.875,3.953-8.828,8.828-8.828h-44.138c-4.875,0-8.828,3.953-8.828,8.828
		c0,4.875,3.953,8.828,8.828,8.828H256C251.124,476.69,247.172,472.738,247.172,467.863z"/>
	<path style="fill:#959CB3;" d="M361.931,154.483h-11.444c-2.436-10.467-6.567-20.26-12.085-29.123l8.107-8.107
		c3.447-3.447,3.447-9.036,0-12.483l-18.727-18.727c-3.447-3.448-9.036-3.448-12.483,0l-8.107,8.107
		c-8.863-5.518-18.656-9.649-29.123-12.085V70.62c0-4.875-3.953-8.828-8.828-8.828h-26.483c-4.875,0-8.828,3.953-8.828,8.828v11.444
		c-10.467,2.436-20.26,6.567-29.123,12.085l-8.107-8.107c-3.447-3.448-9.036-3.448-12.483,0l-18.727,18.727
		c-3.447,3.447-3.447,9.036,0,12.483l8.107,8.107c-5.518,8.863-9.649,18.656-12.085,29.123h-11.444
		c-4.875,0-8.828,3.953-8.828,8.828v26.483c0,4.875,3.953,8.828,8.828,8.828h11.444c2.436,10.467,6.567,20.26,12.085,29.123
		l-8.107,8.107c-3.447,3.447-3.447,9.036,0,12.483l18.727,18.727c3.447,3.447,9.036,3.447,12.483,0l8.107-8.107
		c8.863,5.518,18.656,9.649,29.123,12.085v11.444c0,4.875,3.953,8.828,8.828,8.828h26.483c4.875,0,8.828-3.953,8.828-8.828v-11.444
		c10.467-2.436,20.26-6.567,29.123-12.085l8.107,8.107c3.447,3.447,9.036,3.447,12.483,0l18.727-18.727
		c3.447-3.447,3.447-9.036,0-12.483l-8.107-8.107c5.518-8.863,9.649-18.656,12.085-29.123h11.444c4.875,0,8.828-3.953,8.828-8.828
		V163.31C370.758,158.435,366.807,154.483,361.931,154.483z M256,211.862c-19.501,0-35.31-15.809-35.31-35.31
		s15.809-35.31,35.31-35.31s35.31,15.809,35.31,35.31S275.502,211.862,256,211.862z"/>
</g>
<path style="fill:#AFB9D2;" d="M256,105.931c-39.003,0-70.621,31.617-70.621,70.621c0,39.003,31.618,70.621,70.621,70.621
	s70.621-31.618,70.621-70.621S295.002,105.931,256,105.931z M256,229.517c-29.252,0-52.966-23.714-52.966-52.966
	c0-29.252,23.713-52.966,52.966-52.966s52.966,23.713,52.966,52.966S285.252,229.517,256,229.517z"/>
<g>
	<path style="fill:#707487;" d="M176.551,185.379h8.828c4.875,0,8.828-3.953,8.828-8.828l0,0c0-4.875-3.953-8.828-8.828-8.828
		h-8.828c-4.875,0-8.828,3.953-8.828,8.828l0,0C167.723,181.428,171.676,185.379,176.551,185.379z"/>
	<path style="fill:#707487;" d="M326.62,185.379h8.828c4.875,0,8.828-3.953,8.828-8.828l0,0c0-4.875-3.953-8.828-8.828-8.828h-8.828
		c-4.875,0-8.828,3.953-8.828,8.828l0,0C317.793,181.428,321.745,185.379,326.62,185.379z"/>
	<path style="fill:#707487;" d="M264.827,256v-8.828c0-4.875-3.953-8.828-8.828-8.828l0,0c-4.875,0-8.828,3.953-8.828,8.828V256
		c0,4.875,3.953,8.828,8.828,8.828l0,0C260.875,264.828,264.827,260.876,264.827,256z"/>
	<path style="fill:#707487;" d="M264.827,105.931v-8.828c0-4.875-3.953-8.828-8.828-8.828l0,0c-4.875,0-8.828,3.953-8.828,8.828
		v8.828c0,4.875,3.953,8.828,8.828,8.828l0,0C260.875,114.758,264.827,110.807,264.827,105.931z"/>
</g>
<path style="fill:#FAEBAA;" d="M280.076,423.725l-5.69-62.593c-0.414-4.547-4.226-8.028-8.791-8.028h-19.188
	c-4.566,0-8.377,3.481-8.791,8.028l-5.69,62.593H280.076z"/>
</svg>