<?xml version="1.0" encoding="iso-8859-1"?>
<!-- Uploaded to: SVG Repo, www.svgrepo.com, Generator: SVG Repo Mixer Tools -->
<svg version="1.1" id="Layer_1" xmlns="http://www.w3.org/2000/svg" xmlns:xlink="http://www.w3.org/1999/xlink" 
	 viewBox="0 0 392.598 392.598" xml:space="preserve">
<path style="fill:#194F82;" d="M53.56,166.917H29.446c-6.012,0-10.925,4.848-10.925,10.925s4.848,10.925,10.925,10.925H53.56
	c6.012,0,10.925-4.848,10.925-10.925C64.485,171.83,59.572,166.917,53.56,166.917z"/>
<path style="fill:#FFFFFF;" d="M289.39,177.842c0-51.329-41.697-93.091-93.091-93.091c-45.059-1.164-87.467,36.267-92.315,81.002
	c-3.491,27.798,5.301,55.337,24.242,75.636c17.842,19.071,27.927,44.541,28.897,72.081h78.287
	c1.099-26.634,11.636-52.687,30.449-73.697C281.051,222.707,289.39,200.663,289.39,177.842z"/>
<g>
	<path style="fill:#FFC10D;" d="M196.299,106.408C199.079,106.085,193.519,106.408,196.299,106.408L196.299,106.408z"/>
	<path style="fill:#FFC10D;" d="M196.299,106.408c-41.438,2.457-66.715,29.931-70.723,61.867
		c-2.715,21.333,4.073,42.473,18.618,58.053c21.657,23.079,33.745,53.915,34.78,87.014h34.586
		c1.099-32.065,13.576-63.289,35.943-88.307c11.572-13.059,18.036-29.802,18.036-47.386
		C267.539,138.408,235.604,106.408,196.299,106.408z"/>
</g>
<g>
	<path style="fill:#194F82;" d="M196.299,46.028c6.012,0,10.925-4.848,10.925-10.925V10.925C207.224,4.913,202.376,0,196.299,0
		c-6.012,0-10.925,4.848-10.925,10.925v24.113C185.374,41.115,190.287,46.028,196.299,46.028z"/>
	<path style="fill:#194F82;" d="M363.152,166.917h-24.113c-6.012,0-10.925,4.848-10.925,10.925s4.849,10.925,10.925,10.925h24.113
		c6.012,0,10.925-4.848,10.925-10.925C374.077,171.83,369.164,166.917,363.152,166.917z"/>
	<path style="fill:#194F82;" d="M306.586,52.17l-17.067,17.067c-4.267,4.267-4.267,11.119,0,15.451
		c4.267,4.267,11.119,4.267,15.451,0l17.067-17.067c4.267-4.267,4.267-11.119,0-15.45C317.77,47.903,310.788,47.903,306.586,52.17z"
		/>
	<path style="fill:#194F82;" d="M87.628,271.063l-17.067,17.067c-4.267,4.267-4.267,11.119,0,15.451
		c4.267,4.267,11.119,4.267,15.451,0l17.067-17.067c4.267-4.267,4.267-11.119,0-15.451
		C98.877,266.796,91.895,266.796,87.628,271.063z"/>
	<path style="fill:#194F82;" d="M304.97,271.063c-4.267-4.267-11.119-4.267-15.451,0c-4.267,4.267-4.267,11.119,0,15.451
		l17.067,17.067c4.267,4.267,11.119,4.267,15.451,0c4.267-4.267,4.267-11.119,0-15.451L304.97,271.063z"/>
	<path style="fill:#194F82;" d="M87.628,84.622c4.267,4.267,11.119,4.267,15.451,0c4.267-4.267,4.267-11.119,0-15.451L86.012,52.105
		c-4.267-4.267-11.119-4.267-15.451,0c-4.267,4.267-4.267,11.119,0,15.451L87.628,84.622z"/>
</g>
<rect x="157.382" y="335.192" style="fill:#56ACE0;" width="77.834" height="35.556"/>
<g>
	<path style="fill:#194F82;" d="M196.299,152.113c8.857,0,16.097,7.176,16.097,16.097c0,6.012,4.848,10.925,10.925,10.925
		c6.012,0,10.925-4.848,10.925-10.925c0-17.067-11.378-31.547-26.958-36.267v-7.111c0-6.012-4.848-10.925-10.925-10.925
		s-10.925,4.848-10.925,10.925v7.111c-15.58,4.719-26.958,19.135-26.958,36.267c0,20.881,17.002,37.883,37.883,37.883
		c-0.323,0.065,0,0,0.065,0c8.21,0.776,15.968,7.564,15.968,15.903c0,8.857-7.176,16.097-16.097,16.097s-16.097-7.176-16.097-16.097
		c0-6.012-4.848-10.925-10.925-10.925c-6.012,0-10.925,4.848-10.925,10.925c0,17.067,11.378,31.547,26.958,36.267v7.046
		c0,6.012,4.848,10.925,10.925,10.925c6.012,0,10.925-4.848,10.925-10.925v-7.046c15.58-4.719,26.958-19.135,26.958-36.267
		c0-20.881-18.36-37.818-39.24-37.818c0.323-0.065,0,0-0.065,0c-8.21-0.776-14.61-7.628-14.61-15.968
		C180.202,159.289,187.442,152.113,196.299,152.113z"/>
	<path style="fill:#194F82;" d="M196.299,62.966c-56.63,0-107.248,42.667-113.972,100.073c-4.331,34.263,6.659,68.202,29.996,93.22
		c14.998,16.097,23.273,37.947,23.273,61.608v63.806c0,6.012,4.848,10.925,10.925,10.925h99.685c6.012,0,10.925-4.848,10.925-10.925
		v-63.935c0-22.82,8.857-45.446,25.083-63.612c18.683-21.01,29.026-48.162,29.026-76.347
		C311.176,114.489,259.653,62.966,196.299,62.966z M235.216,370.812h-77.834v-35.556h77.834V370.812L235.216,370.812z
		 M265.859,239.709c-18.683,21.01-29.35,47.063-30.449,73.697h-78.222c-1.034-27.539-11.119-53.01-28.897-72.081
		c-18.941-20.234-27.733-47.838-24.242-75.636c4.848-44.735,47.321-82.23,92.315-81.002c51.329,0,93.091,41.697,93.091,93.091
		C289.39,200.663,281.051,222.707,265.859,239.709z"/>
</g>
</svg>